<svg width="240" height="240" viewBox="0 0 240 240" fill="none" xmlns="http://www.w3.org/2000/svg">
<ellipse cx="119.5" cy="120" rx="117.5" ry="120" fill="black"/>
<path d="M94.964 130.849C94.8811 130.479 94.7045 130.219 94.5939 130.084C94.4787 129.969 94.2868 129.792 94.0012 129.663C93.6372 129.498 93.304 129.487 93.1273 129.491L91.2554 120.058L91.5732 120.016C91.6623 120.208 91.7498 120.402 91.8389 120.598C91.9326 120.816 92.1568 120.925 92.3334 120.874C92.51 120.818 92.573 120.63 92.5837 120.609C92.6666 120.271 92.7665 119.668 92.6298 118.934C92.51 118.294 92.2551 117.821 92.0785 117.54C91.9894 117.348 91.7821 117.244 91.5794 117.285C91.3813 117.322 91.2354 117.494 91.22 117.697C91.1832 117.951 91.1525 118.206 91.1156 118.456H90.7931L87.5881 104.494L92.1246 104.405L92.2136 104.769H93.8215C93.8583 104.732 94.0979 104.488 94.0718 104.119C94.0503 103.812 93.8691 103.625 93.8215 103.579C93.2748 103.579 92.7296 103.584 92.1829 103.584C92.1783 103.749 92.1722 103.917 92.1722 104.082H87.5421C86.8556 100.968 86.1692 97.8573 85.4827 94.7424C85.6133 94.6856 85.7745 94.592 85.9404 94.4569C86.117 94.311 86.2475 94.1606 86.3304 94.0454C86.4871 93.8121 86.6744 93.4989 86.8249 93.1044C86.9816 92.6929 87.0537 92.3245 87.0844 92.0436C87.0891 91.6797 87.0537 91.1808 86.8817 90.6082C86.742 90.1553 86.5592 89.7914 86.398 89.5212C86.2106 89.2971 85.9557 89.0377 85.6332 88.7782C85.3153 88.528 85.0143 88.3514 84.764 88.2163C84.4108 88.0398 84.1298 87.9461 84.0515 87.92C83.7704 87.831 83.5201 87.7803 83.3174 87.7481C83.322 87.3843 83.3282 87.0204 83.3328 86.6504C83.4265 86.655 83.5201 86.6612 83.6138 86.6612C83.6292 84.4413 83.6399 82.2199 83.6507 80H81.361C81.3656 82.226 81.3656 84.452 81.3717 86.6719C81.4654 86.6719 81.5637 86.6673 81.6574 86.6612V87.7266C81.5007 87.7266 81.3088 87.742 81.0953 87.7834C80.7943 87.8463 80.544 87.9446 80.3612 88.0336C80.1171 88.1687 79.8468 88.3345 79.5596 88.5479C79.1649 88.8488 78.8517 89.162 78.6121 89.4322C78.4401 89.6563 78.2374 89.9787 78.0808 90.3948C77.8519 91.0088 77.8212 91.5538 77.8304 91.9023C77.8827 92.2815 78.007 92.8495 78.3249 93.4728C78.652 94.1176 79.059 94.5643 79.3446 94.8361L77.3267 103.989H72.7535C72.7381 103.869 72.7166 103.745 72.7013 103.625H71.0519C71.0059 103.693 70.8646 103.911 70.8799 104.218C70.8907 104.472 70.9997 104.649 71.0519 104.723L72.7013 104.816V104.405L77.2377 104.359C75.401 112.721 73.5705 121.083 71.7384 129.445C71.5879 129.45 71.3637 129.476 71.1195 129.58C70.9798 129.637 70.8646 129.705 70.7755 129.768C70.6404 129.872 70.4054 130.075 70.2288 130.402C70.063 130.698 70.0154 130.974 70 131.14C70.0154 131.323 70.0522 131.552 70.1397 131.811C70.2334 132.087 70.3532 132.305 70.4576 132.467C70.6081 132.576 70.8369 132.711 71.1395 132.804C71.4313 132.898 71.6908 132.924 71.8781 132.924L72.606 134.525V137H73.0222L73.3401 134.482L73.7102 134.343L80.3013 104.445H81.7679L81.8616 105.911C81.8662 106.057 82.1795 106.961 82.5219 106.941C82.7615 106.93 82.975 106.488 83.0732 105.911C83.0947 105.423 83.1193 104.933 83.1408 104.445L84.5613 104.356L91.2047 134.341L91.5226 134.481L91.9387 136.998H92.3503V134.341C92.4655 134.165 92.6006 133.925 92.7096 133.629C92.8248 133.322 92.8755 133.047 92.897 132.834C92.9907 132.864 93.1412 132.912 93.3285 132.906C93.5005 132.901 93.6357 132.864 93.7232 132.834C93.9105 132.751 94.1501 132.62 94.3943 132.428C94.5709 132.282 94.7122 132.137 94.8212 132.008C94.8934 131.851 95.0807 131.404 94.961 130.849H94.964ZM83.0195 103.946C83.0656 103.66 83.0978 103.316 83.0871 102.927C83.0825 102.593 83.0456 102.292 82.998 102.042C83.0026 101.678 82.7477 101.397 82.4928 101.382C82.1964 101.356 81.8524 101.678 81.8938 102.11C81.8831 102.391 81.8831 102.682 81.8831 102.983C81.8877 103.316 81.8985 103.639 81.92 103.946H80.4058L81.9983 96.8011H82.826L84.4753 103.946H83.0195ZM85.2877 93.7998C85.1986 93.4559 85.1111 93.1136 85.022 92.7697C84.5429 93.3208 84.0592 93.872 83.5816 94.4185C83.4879 94.3402 83.0671 93.9978 82.4375 94.0178C81.8555 94.0439 81.4807 94.3663 81.3809 94.4553C80.8557 93.8305 80.3305 93.2118 79.8053 92.5885C79.7331 92.9831 79.6594 93.3746 79.5873 93.7691C79.4153 93.6033 79.1557 93.3009 78.9684 92.8649C78.8117 92.501 78.7657 92.1725 78.7503 91.9499C78.7396 91.6736 78.7549 91.19 78.9899 90.6557C79.1404 90.3119 79.3339 90.057 79.4844 89.8912C79.661 89.6517 79.9574 89.3094 80.4104 89.0069C80.931 88.6692 81.4255 88.528 81.7265 88.4712C81.7372 88.6324 81.7418 88.7982 81.7526 88.9594C82.2317 88.964 82.7154 88.9701 83.193 88.9747V88.4696C83.4433 88.5065 83.7658 88.5786 84.119 88.7291C84.4676 88.8795 84.7379 89.0515 84.936 89.2019C85.1449 89.3739 85.4244 89.6487 85.6639 90.0493C85.8252 90.3088 85.9235 90.5544 85.9864 90.7571C86.0325 90.9183 86.0801 91.1056 86.1108 91.3082C86.1569 91.5999 86.1738 91.8593 86.1676 92.0835C86.1523 92.3076 86.0893 92.676 85.8713 93.0813C85.6839 93.4298 85.4443 93.6632 85.2892 93.7983L85.2877 93.7998Z" fill="#394EA1"/>
<path d="M240 120C240 186.274 186.274 240 120 240C53.7258 240 0 186.274 0 120C0 53.7258 53.7258 0 120 0C186.274 0 240 53.7258 240 120ZM2.39999 120C2.39999 184.949 55.0513 237.6 120 237.6C184.949 237.6 237.6 184.949 237.6 120C237.6 55.0513 184.949 2.39999 120 2.39999C55.0513 2.39999 2.39999 55.0513 2.39999 120Z" fill="#D9D9D9"/>
<path d="M12.6177 161.669C14.3395 159.204 16.0597 156.739 17.7815 154.273C44.4985 149.646 73.8539 145.819 105.557 143.527C148.364 140.433 187.577 140.711 222.306 142.759C218.928 142.922 215.549 143.084 212.171 143.247C180.909 142.115 145.234 142.697 106.116 146.596C71.5716 150.039 40.2529 155.48 12.6192 161.668L12.6177 161.669Z" fill="#394EA1"/>
<path d="M27.2451 136.69H34.1817V111.939H42.5228V106.137H19.0403V111.939H27.2451V136.69Z" fill="white"/>
<path d="M46.1943 136.69V106.137H65.0519V111.804H53.131V118.149H64.3721V123.772H53.131V131.024H65.6867V136.69H46.1943Z" fill="white"/>
<path d="M120.403 130.434L121.446 135.829C118.167 136.99 115.363 137.165 113.604 137.143C111.517 137.117 108.57 137.081 105.345 135.355C102.527 133.847 100.924 131.812 100.378 131.066C97.4218 127.037 97.4729 122.719 97.5085 121.378C97.5442 119.989 97.8476 115.234 101.427 111.165C101.759 110.789 103.159 109.234 105.377 107.957C112.029 104.123 119.805 106.359 121.81 106.998C121.341 108.827 120.873 110.655 120.404 112.484C119.371 112.026 114.76 110.109 110.343 112.122C108.53 112.949 107.417 114.133 107.195 114.375C105.069 116.686 104.761 119.377 104.665 120.33C104.549 121.478 104.444 124.374 106.238 127.18C106.68 127.869 107.675 129.384 109.601 130.419C111.411 131.391 113.065 131.413 114.646 131.433C115.929 131.45 117.984 131.318 120.403 130.436V130.434Z" fill="white"/>
<path d="M125.979 106.137H132.914V117.877H144.293V106.137H151.183V136.69H144.293V123.906H132.914V136.69H125.979V106.137Z" fill="white"/>
<path d="M157.212 106.137H176.071V111.804H164.149V118.149H175.39V123.772H164.149V131.024H176.704V136.496H157.212V106.137Z" fill="white"/>
<path d="M202.039 127.825C201.874 127.085 201.465 125.72 200.373 124.369C199.447 123.228 198.421 122.579 197.781 122.242C201.366 120.935 203.617 117.396 203.273 113.726C202.902 109.765 199.591 106.554 195.466 106.291C193.066 106.048 190.335 105.919 187.338 106.029C185.204 106.108 183.225 106.295 181.42 106.545V136.69H188.265V124.678C189.185 124.678 190.104 124.678 191.024 124.679C191.433 124.726 192.45 124.899 193.399 125.696C194.539 126.653 194.835 127.88 194.912 128.257L197.422 136.69H204.493C203.676 133.735 202.857 130.78 202.039 127.825ZM192.63 119.713C191.928 119.796 191.131 119.847 190.253 119.833C189.528 119.822 188.863 119.766 188.265 119.69V111.259C188.737 111.154 189.268 111.064 189.852 111.01C190.761 110.925 191.575 110.947 192.258 111.01C194.698 111.143 196.57 113.189 196.516 115.485C196.467 117.577 194.827 119.415 192.63 119.713Z" fill="white"/>
<path d="M213.474 77.1429H217.917V87.0245H227.391V91.2856H217.917V101.259H213.474V91.2856H204V87.0245H213.474V77.1429Z" fill="#029B49"/>
</svg>
