<?xml version="1.0" encoding="UTF-8"?>
<svg id="Layer_1" data-name="Layer 1" xmlns="http://www.w3.org/2000/svg" viewBox="0 0 1402.86 589.23">
  <defs>
    <style>
      .cls-1 {
        stroke-width: .5px;
      }

      .cls-1, .cls-2 {
        stroke: #231f20;
        stroke-miterlimit: 10;
      }

      .cls-3 {
        fill: #029b49;
      }

      .cls-4 {
        fill: #394ea1;
      }

      .cls-2 {
        font-family: MyriadPro-Bold, 'Myriad Pro';
        font-size: 292.78px;
        stroke-width: .25px;
      }
    </style>
  </defs>
  <text class="cls-2" transform="translate(1228.24 245.18)"><tspan x="0" y="0">+</tspan></text>
  <path class="cls-4" d="M0,589.23c11.12-15.92,22.23-31.84,33.35-47.77,172.55-29.88,362.14-54.6,566.89-69.4,276.47-19.98,529.72-18.19,754.02-4.96-21.82,1.05-43.64,2.1-65.46,3.15-201.9-7.31-432.31-3.55-684.95,21.63-223.1,22.24-425.37,57.38-603.84,97.34Z"/>
  <path class="cls-4" d="M534.14,390.76c-.54-2.41-1.69-4.1-2.41-4.98-.75-.75-2-1.9-3.86-2.74-2.37-1.08-4.54-1.15-5.69-1.12l-12.19-61.45,2.07-.27c.58,1.25,1.15,2.51,1.73,3.79,.61,1.42,2.07,2.13,3.22,1.8,1.15-.37,1.56-1.59,1.63-1.73,.54-2.2,1.19-6.13,.3-10.91-.78-4.17-2.44-7.25-3.59-9.08-.58-1.25-1.93-1.93-3.25-1.66-1.29,.24-2.24,1.36-2.34,2.68-.24,1.66-.44,3.32-.68,4.95h-2.1l-20.87-90.95,29.54-.58,.58,2.37h10.47c.24-.24,1.8-1.83,1.63-4.23-.14-2-1.32-3.22-1.63-3.52-3.56,0-7.11,.03-10.67,.03-.03,1.08-.07,2.17-.07,3.25h-30.15c-4.47-20.29-8.94-40.55-13.41-60.84,.85-.37,1.9-.98,2.98-1.86,1.15-.95,2-1.93,2.54-2.68,1.02-1.52,2.24-3.56,3.22-6.13,1.02-2.68,1.49-5.08,1.69-6.91,.03-2.37-.2-5.62-1.32-9.35-.91-2.95-2.1-5.32-3.15-7.08-1.22-1.46-2.88-3.15-4.98-4.84-2.07-1.63-4.03-2.78-5.66-3.66-2.3-1.15-4.13-1.76-4.64-1.93-1.83-.58-3.46-.91-4.78-1.12,.03-2.37,.07-4.74,.1-7.15,.61,.03,1.22,.07,1.83,.07,.1-14.46,.17-28.93,.24-43.39h-14.91c.03,14.5,.03,29,.07,43.46,.61,0,1.25-.03,1.86-.07v6.94c-1.02,0-2.27,.1-3.66,.37-1.96,.41-3.59,1.05-4.78,1.63-1.59,.88-3.35,1.96-5.22,3.35-2.57,1.96-4.61,4-6.17,5.76-1.12,1.46-2.44,3.56-3.46,6.27-1.49,4-1.69,7.55-1.63,9.82,.34,2.47,1.15,6.17,3.22,10.23,2.13,4.2,4.78,7.11,6.64,8.88l-13.14,59.62h-29.78c-.1-.78-.24-1.59-.34-2.37h-10.74c-.3,.44-1.22,1.86-1.12,3.86,.07,1.66,.78,2.81,1.12,3.29l10.74,.61v-2.68l29.54-.3c-11.96,54.47-23.88,108.94-35.81,163.41-.98,.03-2.44,.2-4.03,.88-.91,.37-1.66,.81-2.24,1.22-.88,.68-2.41,2-3.56,4.13-1.08,1.93-1.39,3.73-1.49,4.81,.1,1.19,.34,2.68,.91,4.37,.61,1.8,1.39,3.22,2.07,4.27,.98,.71,2.47,1.59,4.44,2.2,1.9,.61,3.59,.78,4.81,.78l4.74,10.43v16.12h2.71l2.07-16.4,2.41-.91,42.92-194.75h9.55l.61,9.55c.03,.95,2.07,6.84,4.3,6.71,1.56-.07,2.95-2.95,3.59-6.71,.14-3.18,.3-6.37,.44-9.55l9.25-.58,43.26,195.32,2.07,.91,2.71,16.4h2.68v-17.31c.75-1.15,1.63-2.71,2.34-4.64,.75-2,1.08-3.79,1.22-5.18,.61,.2,1.59,.51,2.81,.47,1.12-.03,2-.27,2.57-.47,1.22-.54,2.78-1.39,4.37-2.64,1.15-.95,2.07-1.9,2.78-2.74,.47-1.02,1.69-3.93,.91-7.55Zm-77.78-175.24c.3-1.86,.51-4.1,.44-6.64-.03-2.17-.27-4.13-.58-5.76,.03-2.37-1.63-4.2-3.29-4.3-1.93-.17-4.17,1.93-3.9,4.74-.07,1.83-.07,3.73-.07,5.69,.03,2.17,.1,4.27,.24,6.27h-9.86l10.37-46.54h5.39l10.74,46.54h-9.48Zm14.77-66.09c-.58-2.24-1.15-4.47-1.73-6.71-3.12,3.59-6.27,7.18-9.38,10.74-.61-.51-3.35-2.74-7.45-2.61-3.79,.17-6.23,2.27-6.88,2.85-3.42-4.07-6.84-8.1-10.26-12.16-.47,2.57-.95,5.12-1.42,7.69-1.12-1.08-2.81-3.05-4.03-5.89-1.02-2.37-1.32-4.51-1.42-5.96-.07-1.8,.03-4.95,1.56-8.43,.98-2.24,2.24-3.9,3.22-4.98,1.15-1.56,3.08-3.79,6.03-5.76,3.39-2.2,6.61-3.12,8.57-3.49,.07,1.05,.1,2.13,.17,3.18,3.12,.03,6.27,.07,9.38,.1v-3.29c1.63,.24,3.73,.71,6.03,1.69,2.27,.98,4.03,2.1,5.32,3.08,1.36,1.12,3.18,2.91,4.74,5.52,1.05,1.69,1.69,3.29,2.1,4.61,.3,1.05,.61,2.27,.81,3.59,.3,1.9,.41,3.59,.37,5.05-.1,1.46-.51,3.86-1.93,6.5-1.22,2.27-2.78,3.79-3.79,4.67Z"/>
  <polygon class="cls-1" points="94.47 427.9 139.27 427.9 139.27 268.05 193.14 268.05 193.14 230.58 41.48 230.58 41.48 268.05 94.47 268.05 94.47 427.9"/>
  <polygon class="cls-1" points="216.85 427.9 216.85 230.58 338.64 230.58 338.64 267.18 261.65 267.18 261.65 308.16 334.25 308.16 334.25 344.47 261.65 344.47 261.65 391.31 342.74 391.31 342.74 427.9 216.85 427.9"/>
  <path class="cls-1" d="M696.12,387.5l6.74,34.84c-21.18,7.5-39.29,8.63-50.65,8.49-13.48-.17-32.51-.4-53.34-11.55-18.2-9.74-28.55-22.88-32.08-27.7-19.09-26.02-18.76-53.91-18.53-62.57,.23-8.97,2.19-39.68,25.31-65.96,2.14-2.43,11.18-12.47,25.51-20.72,42.96-24.76,93.18-10.32,106.13-6.19-3.03,11.81-6.05,23.62-9.08,35.43-6.67-2.96-36.45-15.34-64.98-2.34-11.71,5.34-18.9,12.99-20.33,14.55-13.73,14.93-15.72,32.31-16.34,38.46-.75,7.42-1.43,26.12,10.16,44.24,2.85,4.45,9.28,14.24,21.72,20.92,11.69,6.28,22.37,6.42,32.58,6.55,8.29,.11,21.56-.74,37.18-6.44Z"/>
  <polygon class="cls-1" points="732.13 230.58 776.92 230.58 776.92 306.4 850.41 306.4 850.41 230.58 894.91 230.58 894.91 427.9 850.41 427.9 850.41 345.34 776.92 345.34 776.92 427.9 732.13 427.9 732.13 230.58"/>
  <polygon class="cls-1" points="933.85 230.58 1055.65 230.58 1055.65 267.18 978.65 267.18 978.65 308.16 1051.25 308.16 1051.25 344.47 978.65 344.47 978.65 391.31 1059.74 391.31 1059.74 426.65 933.85 426.65 933.85 230.58"/>
  <path class="cls-1" d="M1223.36,370.65c-1.07-4.78-3.71-13.6-10.76-22.32-5.98-7.37-12.61-11.56-16.74-13.74,23.15-8.44,37.69-31.3,35.47-55-2.4-25.58-23.78-46.32-50.42-48.02-15.5-1.57-33.14-2.4-52.5-1.69-13.78,.51-26.56,1.72-38.22,3.33v194.69h44.21v-77.58c5.94,0,11.88,0,17.82,.01,2.64,.3,9.21,1.42,15.34,6.57,7.36,6.18,9.27,14.1,9.77,16.54l16.21,54.46h45.67c-5.28-19.08-10.57-38.17-15.85-57.25Zm-60.77-52.39c-4.53,.53-9.68,.86-15.35,.77-4.68-.07-8.98-.43-12.84-.92v-54.45c3.05-.68,6.48-1.26,10.25-1.61,5.87-.55,11.13-.41,15.54,0,15.76,.86,27.85,14.07,27.5,28.9-.32,13.51-10.91,25.38-25.1,27.31Z"/>
  <polygon class="cls-3" points="1301.15 89.43 1329.84 89.43 1329.84 153.25 1391.03 153.25 1391.03 180.77 1329.84 180.77 1329.84 245.18 1301.15 245.18 1301.15 180.77 1239.96 180.77 1239.96 153.25 1301.15 153.25 1301.15 89.43"/>
</svg>